<svg viewBox="0 0 24 24" fill="currentColor"><path fill-rule="evenodd" d="M9.17 7.4c-.15 0-.31-.06-.42-.18L6.57 5.048V20.4c0 .33-.27.6-.6.6-.33 0-.6-.27-.6-.6V5.048L3.19 7.22a.6.6 0 01-.85 0 .6.6 0 010-.85l3.2-3.2a.61.61 0 01.85 0l3.2 3.2c.23.23.23.61 0 .85-.11.12-.27.18-.42.18zm12.8 5.2H9.17c-.33 0-.6-.27-.6-.6 0-.33.27-.6.6-.6h12.8c.33 0 .6.27.6.6 0 .33-.27.6-.6.6zm-12.8 4.2h8.8c.33 0 .6-.27.6-.6 0-.33-.27-.6-.6-.6h-8.8c-.33 0-.6.27-.6.6 0 .33.27.6.6.6zm0 4.2h4.8c.33 0 .6-.27.6-.6 0-.33-.27-.6-.6-.6h-4.8c-.33 0-.6.27-.6.6 0 .33.27.6.6.6z" clip-rule="evenodd"></path></svg>