<svg viewBox="0 0 24 24" fill="currentColor"><path fill-rule="evenodd" d="M9.17 16.598c-.15 0-.31.06-.42.18L6.57 18.95V3.598c0-.33-.27-.6-.6-.6-.33 0-.6.27-.6.6V18.95l-2.18-2.172a.6.6 0 00-.85 0 .6.6 0 000 .85l3.2 3.2c.23.23.61.23.85 0l3.2-3.2a.61.61 0 000-.85.576.576 0 00-.42-.18zm12.8-5.2H9.17c-.33 0-.6.27-.6.6 0 .33.27.6.6.6h12.8c.33 0 .6-.27.6-.6 0-.33-.27-.6-.6-.6zm-12.8-4.2h8.8c.33 0 .6.27.6.6 0 .33-.27.6-.6.6h-8.8c-.33 0-.6-.27-.6-.6 0-.33.27-.6.6-.6zm0-4.2h4.8c.33 0 .6.27.6.6 0 .33-.27.6-.6.6h-4.8c-.33 0-.6-.27-.6-.6 0-.33.27-.6.6-.6z" clip-rule="evenodd"></path></svg>